<?xml version="1.0" encoding="UTF-8" standalone="no"?> <svg width="24" height="24" viewBox="0 0 24 24" fill="none" xmlns="http://www.w3.org/2000/svg">
<path fill-rule="evenodd" clip-rule="evenodd" d="M10 2C7.23858 2 5 4.23858 5 7C5 7.55228 4.55228 8 4 8C3.44772 8 3 7.55228 3 7C3 3.13401 6.13401 0 10 0C13.866 0 17 3.13401 17 7C17 7.55228 16.5523 8 16 8C15.4477 8 15 7.55228 15 7C15 4.23858 12.7614 2 10 2ZM6.99989 7C6.99988 5.34315 8.34303 4 9.99988 4C11.6567 4 12.9999 5.34314 12.9999 7V9.19783L18.3998 10.3978C20.4974 10.8639 21.8519 12.904 21.4676 15.0181L20.7302 19.0733C20.2115 21.9263 17.7267 24 14.827 24H11.4303C9.58911 24 7.84986 23.1547 6.71235 21.7069L3.73905 17.9226C2.84965 16.7907 2.87264 15.191 3.7942 14.085C4.60273 13.1147 5.87499 12.7807 6.99991 13.1107L6.99989 7ZM12.9999 11.2466V13C12.9999 13.5523 12.5522 14 11.9999 14C11.4476 14 10.9999 13.5523 10.9999 13V7C10.9999 6.44771 10.5522 6 9.99988 6C9.4476 6 8.99988 6.44771 8.99989 7L8.99991 15C8.99991 15.4045 8.75627 15.7691 8.38259 15.9239C8.00891 16.0787 7.57878 15.9931 7.29279 15.7071L6.88074 15.295C6.44388 14.8581 5.72619 14.8907 5.33069 15.3653C5.01331 15.7462 5.00539 16.2971 5.31169 16.687L8.285 20.4713C9.04334 21.4364 10.2028 22 11.4303 22H14.827C16.7601 22 18.4167 20.6175 18.7625 18.7156L19.4998 14.6603C19.692 13.6033 19.0147 12.5832 17.9659 12.3502L12.9999 11.2466Z" fill="#293644"/>
</svg>
